<svg xmlns="http://www.w3.org/2000/svg" viewBox="0 0 145.86 122.57"><defs><style>.cls-1,.cls-2{fill:none;stroke:#e0dfdf;stroke-miterlimit:10;}.cls-2{stroke-dasharray:4.01 4.01;}.cls-3{fill:#e0dfdf;}</style></defs><g id="Layer_2" data-name="Layer 2"><g id="Layer_1-2" data-name="Layer 1"><path class="cls-1" d="M.12,122.08l1.93-.49"/><path class="cls-2" d="M5.93,120.58c23.31-6.2,108.58-30.91,105.37-59.44-3.72-33-42.33-18.61-38.61-5.58,0,0-2.79,34,48.84,15.35C144.09,64,135.86,33,132.21,22.1"/><path class="cls-1" d="M131.55,20.21c-.44-1.2-.71-1.87-.71-1.87"/><path class="cls-3" d="M142.35,23.32l-7,2a.47.47,0,0,1-.53-.21L131.3,19a.46.46,0,0,0-.85.32l1.3,6.57a.46.46,0,0,1-.32.53l-8.19,2.31a4.83,4.83,0,0,1-6-5.83l4.87-19.25a4.83,4.83,0,0,1,8-2.28L144.4,15.21A4.84,4.84,0,0,1,142.35,23.32Z"/></g></g></svg>